<?xml version="1.0" standalone="no"?>
<!DOCTYPE svg PUBLIC "-//W3C//DTD SVG 20010904//EN"
 "http://www.w3.org/TR/2001/REC-SVG-20010904/DTD/svg10.dtd">
<svg version="1.0" xmlns="http://www.w3.org/2000/svg"
 width="256.000000pt" height="256.000000pt" viewBox="0 0 256.000000 256.000000"
 preserveAspectRatio="xMidYMid meet">
<metadata>
Created by potrace 1.14, written by Peter Selinger 2001-2017
</metadata>
<g transform="translate(0.000000,256.000000) scale(0.100000,-0.100000)"
fill="#000000" stroke="none">
<path d="M0 1780 l0 -780 145 0 145 0 0 140 0 140 70 0 70 0 0 -140 0 -140
140 0 140 0 0 -70 0 -70 -140 0 -140 0 0 -145 0 -145 430 0 430 0 0 75 0 75
-285 0 -285 0 0 65 0 66 213 -3 c121 -2 247 -10 294 -18 68 -12 94 -12 145 -1
76 15 155 52 204 97 l37 34 473 0 474 0 0 165 0 165 -255 0 -255 0 0 250 0
250 255 0 255 0 0 130 0 130 -255 0 -255 0 0 255 0 255 -130 0 -130 0 0 -255
0 -255 -255 0 -255 0 0 255 0 255 -640 0 -640 0 0 -780z m708 467 c37 -24 154
-99 260 -167 106 -68 189 -127 185 -131 -8 -8 -163 -107 -426 -274 l-87 -55
-83 52 c-45 28 -93 59 -107 68 -14 10 -94 61 -177 115 -84 54 -153 99 -153
100 0 1 71 48 157 104 87 55 203 129 258 165 55 35 101 65 103 65 2 1 33 -19
70 -42z m1082 -707 l0 -250 -25 0 c-14 0 -25 3 -25 8 0 4 -7 37 -14 73 -20 93
-58 163 -126 231 -69 69 -153 112 -251 128 -63 11 -69 14 -69 36 l0 24 255 0
255 0 0 -250z m-415 126 c155 -41 264 -159 296 -319 24 -119 -19 -251 -113
-345 -182 -183 -484 -149 -616 71 -79 131 -81 270 -6 406 81 150 273 232 439
187z m-500 -589 c16 -34 31 -65 33 -69 2 -5 -39 -8 -92 -8 l-96 0 0 70 0 70
63 0 62 -1 30 -62z"/>
<path d="M544 2161 c-42 -19 -117 -98 -108 -113 3 -4 10 -5 16 -2 6 4 14 0 19
-7 6 -10 9 -11 9 -2 0 15 138 9 153 -6 5 -5 16 -7 23 -4 8 3 14 0 14 -7 0 -6
4 -9 9 -6 13 8 73 -19 64 -29 -5 -4 -2 -5 4 -1 15 8 56 -17 46 -28 -4 -4 0 -4
8 -1 9 3 22 -1 29 -10 7 -8 19 -15 28 -15 20 0 10 75 -17 128 -55 107 -187
153 -297 103z"/>
<path d="M520 2033 c0 -9 -16 -13 -45 -13 -55 0 -70 -22 -61 -87 16 -119 109
-203 226 -203 85 0 162 46 200 121 l20 38 -25 19 c-13 11 -22 22 -20 26 3 3 2
4 -1 2 -3 -2 -29 8 -58 24 -29 15 -76 33 -105 41 -28 7 -51 16 -51 20 0 4 -10
5 -22 1 -14 -3 -19 -2 -14 6 4 7 3 12 -3 12 -5 0 -12 -6 -14 -12 -4 -10 -8 -9
-16 2 -7 10 -11 11 -11 3z"/>
<path d="M1167 1564 c-4 -4 -7 -18 -7 -31 0 -18 -5 -23 -25 -23 -24 0 -25 -3
-25 -60 l0 -60 55 0 c54 0 55 0 55 30 l0 30 60 0 c66 0 66 1 54 -72 l-7 -38
-53 0 -54 0 0 -60 0 -60 60 0 60 0 0 30 c0 25 4 30 24 30 19 0 26 7 31 30 5
24 12 30 33 30 l27 0 -3 85 c-3 82 -4 85 -27 85 -18 0 -24 6 -27 28 l-3 27
-111 3 c-60 1 -113 -1 -117 -4z"/>
<path d="M1220 1050 l0 -60 60 0 60 0 0 60 0 60 -60 0 -60 0 0 -60z"/>
<path d="M0 715 l0 -145 145 0 145 0 0 145 0 145 -145 0 -145 0 0 -145z"/>
<path d="M0 355 l0 -75 640 0 640 0 0 -65 0 -65 -638 -2 -637 -3 -3 -72 -3
-73 1281 0 1280 0 0 165 0 165 -634 0 -635 0 -3 48 -3 47 -642 3 -643 2 0 -75z"/>
</g>
</svg>
